<?xml version="1.0" encoding="utf-8"?>
<!-- Generator: Adobe Illustrator 25.2.0, SVG Export Plug-In . SVG Version: 6.00 Build 0)  -->
<svg version="1.1" id="Ebene_1" xmlns="http://www.w3.org/2000/svg" xmlns:xlink="http://www.w3.org/1999/xlink" x="0px" y="0px"
	 viewBox="0 0 122 28" style="enable-background:new 0 0 122 28;" xml:space="preserve">
<style type="text/css">
	.st0{fill:#FFFFFF;}
</style>
<g id="Page-1">
	<g id="foodspring---Desktop---Rezepte-NEW" transform="translate(-40.000000, -26.000000)">
		<g id="logo-foodspring" transform="translate(40.000000, 26.000000)">
			<g id="Group">
				<path id="Path" class="st0" d="M3.8,11.9v9.4H1v-9.4H0V9.3h1V4.7c0-1.5,0.3-2.6,0.8-3.2C2.5,0.6,3.6,0.2,5,0.2
					c0.5,0,1.1,0.1,1.9,0.4v2.9L6.6,3.3C6,3,5.5,2.9,5.1,2.9c-0.5,0-0.8,0.2-1,0.5c-0.2,0.3-0.3,1-0.3,2v4h3V12L3.8,11.9L3.8,11.9z"
					/>
				<path id="Shape" class="st0" d="M7.7,15.2c0-1.7,0.6-3.2,1.9-4.4C10.8,9.6,12.3,9,14.1,9s3.3,0.6,4.6,1.8
					c1.2,1.2,1.9,2.7,1.9,4.5c0,1.8-0.6,3.3-1.9,4.5c-1.3,1.2-2.8,1.8-4.6,1.8s-3.3-0.6-4.5-1.9C8.3,18.6,7.7,17.1,7.7,15.2z
					 M10.5,15.3c0,1.2,0.3,2.1,1,2.9c0.7,0.7,1.6,1,2.6,1c1.1,0,2-0.3,2.6-1c0.7-0.7,1-1.6,1-2.8s-0.3-2.1-1-2.8
					c-0.7-0.7-1.6-1-2.6-1s-1.9,0.3-2.6,1C10.9,13.3,10.5,14.2,10.5,15.3z"/>
				<path id="Shape_1_" class="st0" d="M21.9,15.2c0-1.7,0.6-3.2,1.9-4.4C25,9.6,26.5,9,28.3,9s3.3,0.6,4.6,1.8
					c1.2,1.2,1.9,2.7,1.9,4.5c0,1.8-0.6,3.3-1.9,4.5c-1.3,1.2-2.8,1.8-4.6,1.8c-1.8,0-3.3-0.6-4.5-1.9
					C22.5,18.6,21.9,17.1,21.9,15.2z M24.7,15.3c0,1.2,0.3,2.1,1,2.9c0.7,0.7,1.6,1,2.6,1c1.1,0,2-0.3,2.6-1c0.7-0.7,1-1.6,1-2.8
					s-0.3-2.1-1-2.8c-0.7-0.7-1.6-1-2.6-1s-1.9,0.3-2.6,1C25.1,13.3,24.7,14.2,24.7,15.3z"/>
				<path id="Shape_2_" class="st0" d="M45.5,0.5h2.8v20.8h-2.8V20c-1.1,1.1-2.3,1.6-3.7,1.6c-1.7,0-3-0.6-4.1-1.8
					c-1.1-1.2-1.6-2.7-1.6-4.6c0-1.8,0.6-3.3,1.6-4.5s2.4-1.8,4-1.8c1.4,0,2.7,0.6,3.8,1.7V0.5L45.5,0.5z M38.9,15.3
					c0,1.1,0.3,2.1,0.9,2.8c0.6,0.7,1.4,1.1,2.4,1.1c1,0,1.9-0.3,2.5-1c0.6-0.7,0.9-1.6,0.9-2.8s-0.3-2-0.9-2.8
					c-0.6-0.7-1.4-1.1-2.5-1.1c-0.9,0-1.7,0.4-2.4,1.1C39.2,13.3,38.9,14.2,38.9,15.3z"/>
				<path id="Path_1_" class="st0" d="M58.3,11.4L56,12.6c-0.4-0.7-0.8-1.1-1.3-1.1c-0.3,0-0.5,0.1-0.7,0.3s-0.3,0.4-0.3,0.7
					c0,0.4,0.6,0.9,1.6,1.4c1.5,0.6,2.4,1.2,3,1.7c0.5,0.5,0.8,1.3,0.8,2.1c0,1.2-0.4,2.1-1.3,2.9c-0.8,0.7-1.8,1.1-3,1.1
					c-2,0-3.4-1-4.3-2.9l2.4-1.1c0.3,0.6,0.6,0.9,0.7,1.1c0.3,0.3,0.7,0.4,1.2,0.4c0.9,0,1.4-0.4,1.4-1.3c0-0.5-0.4-0.9-1.1-1.4
					c-0.3-0.1-0.6-0.3-0.8-0.4c-0.3-0.1-0.6-0.3-0.9-0.4c-0.8-0.4-1.4-0.8-1.7-1.2C51.2,14,51,13.4,51,12.6c0-1,0.4-1.9,1.1-2.6
					c0.7-0.7,1.6-1,2.7-1C56.4,9,57.5,9.8,58.3,11.4z"/>
				<path id="Shape_3_" class="st0" d="M63.8,27.8h-2.8V9.3h2.8v1.3C64.9,9.6,66.2,9,67.6,9c1.7,0,3,0.6,4.1,1.8
					c1.1,1.2,1.6,2.7,1.6,4.6c0,1.8-0.6,3.3-1.6,4.5c-1.1,1.2-2.4,1.8-4,1.8c-1.4,0-2.7-0.6-3.8-1.7V27.8L63.8,27.8z M70.5,15.4
					c0-1.1-0.3-2.1-0.9-2.8c-0.6-0.7-1.4-1.1-2.4-1.1c-1,0-1.9,0.3-2.5,1c-0.6,0.7-0.9,1.6-0.9,2.8c0,1.1,0.3,2,0.9,2.8
					c0.6,0.7,1.4,1.1,2.5,1.1c1,0,1.8-0.4,2.4-1.1C70.1,17.4,70.5,16.5,70.5,15.4z"/>
				<path id="Path_2_" class="st0" d="M75.2,9.3H78v1.1c0.5-0.5,1-0.9,1.4-1.1C79.7,9.1,80.2,9,80.8,9c0.7,0,1.5,0.2,2.3,0.7
					l-1.3,2.5c-0.5-0.4-1.1-0.6-1.6-0.6c-1.5,0-2.3,1.1-2.3,3.4v6.2h-2.8L75.2,9.3L75.2,9.3z"/>
				<path id="Shape_4_" class="st0" d="M84.1,4.3c0-0.5,0.2-0.9,0.6-1.3C85,2.7,85.4,2.5,86,2.5s0.9,0.2,1.3,0.5
					c0.3,0.3,0.6,0.8,0.6,1.3s-0.2,0.9-0.6,1.3C86.9,6,86.5,6.2,86,6.2S85,6,84.7,5.7C84.3,5.3,84.1,4.9,84.1,4.3z M87.3,9.3v12
					h-2.8v-12H87.3z"/>
				<path id="Path_3_" class="st0" d="M90.3,9.3h2.8v1.1c1-1,2.1-1.4,3.3-1.4c1.4,0,2.5,0.4,3.3,1.3c0.7,0.7,1,2,1,3.7v7.3h-2.8
					v-6.7c0-1.2-0.2-2-0.5-2.4c-0.3-0.4-0.9-0.7-1.7-0.7c-0.9,0-1.6,0.3-2,0.9c-0.4,0.6-0.6,1.6-0.6,3.1v5.8h-2.8L90.3,9.3L90.3,9.3
					z"/>
				<path id="Shape_5_" class="st0" d="M115.3,21c0,0.6,0,1-0.1,1.5c0,0.4-0.1,0.8-0.1,1.1c-0.2,0.9-0.6,1.7-1.2,2.3
					c-1.1,1.3-2.6,1.9-4.5,1.9c-1.6,0-2.9-0.4-4-1.3c-1.1-0.9-1.7-2.1-1.9-3.7h2.8c0.1,0.6,0.3,1,0.6,1.4c0.6,0.7,1.4,1.1,2.5,1.1
					c2,0,3-1.3,3-3.7V20c-1.1,1.1-2.4,1.7-3.8,1.7c-1.6,0-3-0.6-4-1.8c-1.1-1.2-1.6-2.7-1.6-4.5c0-1.7,0.5-3.2,1.5-4.4
					c1.1-1.3,2.4-1.9,4.2-1.9c1.5,0,2.8,0.6,3.8,1.7V9.4h2.8V21L115.3,21z M112.7,15.3c0-1.2-0.3-2.1-0.9-2.8
					c-0.6-0.7-1.4-1.1-2.4-1.1c-1.1,0-1.9,0.4-2.5,1.2c-0.6,0.7-0.8,1.6-0.8,2.7c0,1.1,0.3,2,0.8,2.7c0.6,0.8,1.4,1.1,2.5,1.1
					c1.1,0,1.9-0.4,2.5-1.2C112.4,17.3,112.7,16.5,112.7,15.3z"/>
			</g>
			<path id="Shape_6_" class="st0" d="M122,5.3c0,0.7-0.2,1.2-0.6,1.7c-0.4,0.4-0.9,0.7-1.5,0.7c-0.6,0-1.1-0.3-1.5-0.7
				c-0.4-0.4-0.6-1-0.6-1.7c0-0.4,0-0.7,0.2-1c0.1-0.3,0.3-0.6,0.6-0.8c0.4-0.4,0.8-0.6,1.3-0.6c0.3,0,0.6,0.1,0.9,0.2
				c0.4,0.2,0.7,0.5,0.9,0.9C121.9,4.5,122,4.9,122,5.3z M119.9,3.3c-0.5,0-0.9,0.2-1.2,0.6c-0.3,0.4-0.5,0.9-0.5,1.4
				c0,0.6,0.2,1,0.5,1.4c0.3,0.4,0.7,0.6,1.2,0.6c0.5,0,0.9-0.2,1.2-0.6c0.3-0.4,0.5-0.9,0.5-1.4c0-0.3,0-0.6-0.2-0.9
				c-0.1-0.3-0.3-0.6-0.5-0.7C120.6,3.5,120.3,3.3,119.9,3.3z M120.1,5.6l0.8,1.1h-0.6l-0.7-1.1v1.1h-0.5V4h0.5
				c0.3,0,0.6,0.1,0.7,0.2c0.2,0.1,0.3,0.4,0.3,0.6c0,0.2,0,0.3-0.1,0.5C120.4,5.5,120.3,5.6,120.1,5.6L120.1,5.6L120.1,5.6z
				 M119.6,5.2L119.6,5.2c0.4,0,0.6-0.1,0.6-0.4c0-0.3-0.2-0.4-0.5-0.4h-0.1V5.2L119.6,5.2z"/>
		</g>
	</g>
</g>
</svg>
