<?xml version="1.0" encoding="UTF-8"?>
<svg width="122px" height="28px" viewBox="0 0 122 28" version="1.1" xmlns="http://www.w3.org/2000/svg" xmlns:xlink="http://www.w3.org/1999/xlink">
    <title>A9B16145-1BFA-44DD-B825-E2AFF6E6C211</title>
    <g id="Page-1" stroke="none" stroke-width="1" fill="none" fill-rule="evenodd">
        <g id="foodspring---Desktop---Rezepte-NEW" transform="translate(-40.000000, -26.000000)" fill="#000000" fill-rule="nonzero">
            <g id="logo-foodspring" transform="translate(40.000000, 26.000000)">
                <g id="Group">
                    <path d="M3.83862164,11.9065421 L3.83862164,21.3009346 L1.02538523,21.3009346 L1.02538523,11.9065421 L0.0262919291,11.9065421 L0.0262919291,9.31588785 L1.02538523,9.31588785 L1.02538523,4.71028037 C1.02538523,3.19252336 1.28830452,2.11962617 1.81414311,1.49158879 C2.52402519,0.601869159 3.57570235,0.18317757 4.96917459,0.18317757 C5.44242932,0.18317757 6.07343562,0.314018692 6.83590156,0.601869159 L6.83590156,3.45420561 L6.57298227,3.32336449 C5.9682679,3.00934579 5.49501318,2.87850467 5.10063424,2.87850467 C4.62737952,2.87850467 4.28558444,3.06168224 4.10154094,3.42803738 C3.91749743,3.7682243 3.83862164,4.42242991 3.83862164,5.41682243 L3.83862164,9.3682243 L6.86219349,9.3682243 L6.86219349,11.9588785 L3.83862164,11.9588785 L3.83862164,11.9065421 Z" id="Path"></path>
                    <path d="M7.67724329,15.2299065 C7.67724329,13.5028037 8.30824959,12.011215 9.54397025,10.8336449 C10.8059828,9.60373832 12.3046228,9.02803738 14.092474,9.02803738 C15.8803252,9.02803738 17.405257,9.62990654 18.6672696,10.8336449 C19.9029903,12.0635514 20.5339966,13.5551402 20.5339966,15.3084112 C20.5339966,17.0878505 19.9029903,18.6056075 18.6672696,19.835514 C17.405257,21.0392523 15.8803252,21.6411215 14.0661821,21.6411215 C12.2520389,21.6411215 10.753399,21.0130841 9.51767832,19.7831776 C8.30824959,18.6056075 7.67724329,17.0616822 7.67724329,15.2299065 Z M10.5430636,15.282243 C10.5430636,16.4859813 10.8585667,17.4018692 11.5158649,18.1345794 C12.1731632,18.8411215 13.0670887,19.1813084 14.1187659,19.1813084 C15.196735,19.1813084 16.0906606,18.8411215 16.7216669,18.1345794 C17.3789651,17.4280374 17.6944683,16.5121495 17.6944683,15.3607477 C17.6944683,14.2093458 17.3789651,13.2672897 16.7216669,12.5869159 C16.0643687,11.8803738 15.1704431,11.5401869 14.1187659,11.5401869 C13.0670887,11.5401869 12.1994551,11.8803738 11.5421569,12.5869159 C10.8585667,13.2672897 10.5430636,14.1831776 10.5430636,15.282243 Z" id="Shape"></path>
                    <path d="M21.9011769,15.2299065 C21.9011769,13.5028037 22.5321832,12.011215 23.7679039,10.8336449 C25.0299165,9.60373832 26.5285564,9.02803738 28.3164076,9.02803738 C30.1042588,9.02803738 31.6291907,9.62990654 32.8912033,10.8336449 C34.1269239,12.0635514 34.7579302,13.5551402 34.7579302,15.3084112 C34.7579302,17.0878505 34.1269239,18.6056075 32.8912033,19.835514 C31.6291907,21.0392523 30.1042588,21.6411215 28.2901157,21.6411215 C26.5022645,21.6411215 24.9773326,21.0130841 23.741612,19.7831776 C22.4795994,18.6056075 21.9011769,17.0616822 21.9011769,15.2299065 Z M24.7144133,15.282243 C24.7144133,16.4859813 25.0299165,17.4018692 25.6872147,18.1345794 C26.3445129,18.8411215 27.2384385,19.1813084 28.2901157,19.1813084 C29.3680848,19.1813084 30.2620104,18.8411215 30.8930167,18.1345794 C31.5503149,17.4280374 31.865818,16.5121495 31.865818,15.3607477 C31.865818,14.2093458 31.5503149,13.2672897 30.8930167,12.5869159 C30.2357184,11.8803738 29.3417928,11.5401869 28.2901157,11.5401869 C27.2384385,11.5401869 26.3708049,11.8803738 25.7135066,12.5869159 C25.0562084,13.2672897 24.7144133,14.1831776 24.7144133,15.282243 Z" id="Shape"></path>
                    <path d="M45.5113292,0.54953271 L48.2982737,0.54953271 L48.2982737,21.3009346 L45.5113292,21.3009346 L45.5113292,20.0448598 C44.4333601,21.117757 43.1713475,21.6411215 41.8041672,21.6411215 C40.1477757,21.6411215 38.7805954,21.0392523 37.7026263,19.8616822 C36.6246572,18.6317757 36.0725267,17.1140187 36.0725267,15.282243 C36.0725267,13.5028037 36.6246572,12.011215 37.7026263,10.8074766 C38.7805954,9.60373832 40.1214838,9.00186916 41.7515834,9.00186916 C43.1450556,9.00186916 44.4070682,9.57757009 45.5113292,10.728972 L45.5113292,0.54953271 L45.5113292,0.54953271 Z M38.912055,15.282243 C38.912055,16.4074766 39.2275582,17.3495327 39.8322725,18.082243 C40.4632788,18.8149533 41.2520367,19.1813084 42.2248381,19.1813084 C43.2502233,19.1813084 44.0915651,18.8411215 44.6962794,18.1345794 C45.3272857,17.4018692 45.6427889,16.4859813 45.6427889,15.3607477 C45.6427889,14.235514 45.3272857,13.3196262 44.6962794,12.5869159 C44.0652731,11.8803738 43.2502233,11.5140187 42.2248381,11.5140187 C41.2783286,11.5140187 40.4895708,11.8803738 39.8322725,12.5869159 C39.2275582,13.2934579 38.912055,14.2093458 38.912055,15.282243 Z" id="Shape"></path>
                    <path d="M58.2892068,11.3570093 L55.975517,12.5869159 C55.60743,11.8542056 55.1867591,11.4878505 54.6346286,11.4878505 C54.3717093,11.4878505 54.1613739,11.5663551 53.9773304,11.7495327 C53.7932869,11.9327103 53.6881192,12.1158879 53.6881192,12.4037383 C53.6881192,12.8485981 54.2402497,13.3196262 55.2919268,13.764486 C56.7642749,14.3925234 57.7370762,14.9943925 58.2629148,15.4915888 C58.7887534,16.0411215 59.0253808,16.7476636 59.0253808,17.6373832 C59.0253808,18.788785 58.6047099,19.7570093 57.7370762,20.5420561 C56.9220264,21.2747664 55.9229331,21.6411215 54.7135044,21.6411215 C52.6890259,21.6411215 51.2692617,20.6728972 50.42792,18.7102804 L52.7941936,17.611215 C53.1359887,18.1869159 53.372616,18.553271 53.5303676,18.7102804 C53.8721627,19.0242991 54.2665416,19.1551402 54.7397963,19.1551402 C55.6863058,19.1551402 56.1332686,18.7364486 56.1332686,17.8728972 C56.1332686,17.4018692 55.7651816,16.9308411 55.0552995,16.5121495 C54.7660883,16.3813084 54.476877,16.2242991 54.2402497,16.1196262 C53.9510385,15.988785 53.6618272,15.8579439 53.372616,15.7271028 C52.5838581,15.3345794 52.0054357,14.9420561 51.6636406,14.5233645 C51.2429698,14 51.0326343,13.3981308 51.0326343,12.5869159 C51.0326343,11.5401869 51.4007213,10.6766355 52.1106034,9.99626168 C52.8467774,9.31588785 53.740703,8.97570093 54.7660883,8.97570093 C56.3961879,9.00186916 57.5267408,9.81308411 58.2892068,11.3570093 Z" id="Path"></path>
                    <path d="M63.8368038,27.8168224 L61.0761512,27.8168224 L61.0761512,9.31588785 L63.8368038,9.31588785 L63.8368038,10.6242991 C64.9147729,9.55140187 66.1767855,8.97570093 67.5702577,8.97570093 C69.2266492,8.97570093 70.5938296,9.57757009 71.6455067,10.7813084 C72.7234758,11.9850467 73.2756063,13.5028037 73.2756063,15.3607477 C73.2756063,17.1401869 72.7234758,18.6579439 71.6455067,19.835514 C70.5675376,21.0392523 69.2266492,21.6149533 67.5965496,21.6149533 C66.2030774,21.6149533 64.9410648,21.0392523 63.8368038,19.9401869 L63.8368038,27.8168224 L63.8368038,27.8168224 Z M70.4623699,15.3869159 C70.4623699,14.2616822 70.1468668,13.3196262 69.5158605,12.5869159 C68.8848542,11.8542056 68.0960963,11.4878505 67.1232949,11.4878505 C66.0979097,11.4878505 65.256568,11.8280374 64.6518536,12.5345794 C64.0208473,13.2411215 63.7053441,14.1570093 63.7053441,15.3084112 C63.7053441,16.4336449 64.0208473,17.3495327 64.6518536,18.082243 C65.2828599,18.788785 66.0979097,19.1551402 67.1232949,19.1551402 C68.0960963,19.1551402 68.8848542,18.788785 69.5158605,18.082243 C70.1205748,17.3757009 70.4623699,16.4859813 70.4623699,15.3869159 Z" id="Shape"></path>
                    <path d="M75.2212091,9.31588785 L77.9818616,9.31588785 L77.9818616,10.388785 C78.5077002,9.83925234 78.954663,9.4728972 79.3490419,9.28971963 C79.7434209,9.08037383 80.2429675,8.97570093 80.7688061,8.97570093 C81.5049801,8.97570093 82.293738,9.21121495 83.0824959,9.68224299 L81.7941913,12.2205607 C81.2683528,11.8542056 80.7425142,11.6448598 80.2429675,11.6448598 C78.7180356,11.6448598 77.9555697,12.7700935 77.9555697,15.046729 L77.9555697,21.2747664 L75.1949171,21.2747664 L75.1949171,9.31588785 L75.2212091,9.31588785 Z" id="Path"></path>
                    <path d="M84.134173,4.34392523 C84.134173,3.8728972 84.3182165,3.42803738 84.6863035,3.08785047 C85.0280986,2.74766355 85.4487695,2.53831776 85.9746081,2.53831776 C86.5004466,2.53831776 86.9211175,2.72149533 87.2629126,3.08785047 C87.6047077,3.42803738 87.8150431,3.84672897 87.8150431,4.37009346 C87.8150431,4.89345794 87.6309996,5.31214953 87.2629126,5.65233645 C86.9211175,5.99252336 86.5004466,6.20186916 85.9746081,6.20186916 C85.4487695,6.20186916 85.0280986,6.01869159 84.6863035,5.65233645 C84.2919246,5.28598131 84.134173,4.86728972 84.134173,4.34392523 Z M87.3154964,9.31588785 L87.3154964,21.3009346 L84.5548439,21.3009346 L84.5548439,9.31588785 L87.3154964,9.31588785 Z" id="Shape"></path>
                    <path d="M90.3390683,9.31588785 L93.1260128,9.31588785 L93.1260128,10.4149533 C94.0988141,9.44672897 95.1767832,8.97570093 96.4125039,8.97570093 C97.8059761,8.97570093 98.8839452,9.39439252 99.698995,10.2841121 C100.382585,11.0168224 100.698088,12.246729 100.698088,13.9476636 L100.698088,21.2747664 L97.9111439,21.2747664 L97.9111439,14.6018692 C97.9111439,13.3981308 97.7271004,12.6130841 97.4378891,12.1682243 C97.122386,11.7233645 96.5176716,11.4878505 95.7026218,11.4878505 C94.7824043,11.4878505 94.1251061,11.8018692 93.7307271,12.4037383 C93.3626401,13.0056075 93.1523047,14.0523364 93.1523047,15.517757 L93.1523047,21.2747664 L90.3653602,21.2747664 L90.3653602,9.31588785 L90.3390683,9.31588785 Z" id="Path"></path>
                    <path d="M115.342693,21.0130841 C115.342693,21.588785 115.316401,22.0598131 115.290109,22.5308411 C115.263817,22.9495327 115.211233,23.3158879 115.158649,23.6560748 C114.948314,24.5719626 114.580227,25.3308411 114.001804,25.9850467 C112.923835,27.2411215 111.425195,27.8691589 109.532177,27.8691589 C107.928369,27.8691589 106.58748,27.4504673 105.562095,26.5869159 C104.484126,25.6971963 103.879412,24.4934579 103.695368,22.9233645 L106.482313,22.9233645 C106.58748,23.5252336 106.771524,23.9700935 107.034443,24.2841121 C107.612866,25.0168224 108.454207,25.3831776 109.558468,25.3831776 C111.582947,25.3831776 112.608332,24.1271028 112.608332,21.6672897 L112.608332,19.9925234 C111.504071,21.117757 110.242059,21.6672897 108.796003,21.6672897 C107.165903,21.6672897 105.825015,21.0654206 104.773337,19.9140187 C103.72166,18.7102804 103.195822,17.2186916 103.195822,15.4392523 C103.195822,13.7121495 103.669076,12.1943925 104.66817,10.9906542 C105.719847,9.68224299 107.113319,9.05420561 108.822294,9.05420561 C110.347226,9.05420561 111.582947,9.62990654 112.58204,10.728972 L112.58204,9.3682243 L115.342693,9.3682243 L115.342693,21.0130841 L115.342693,21.0130841 Z M112.687208,15.3345794 C112.687208,14.1831776 112.371705,13.2411215 111.740699,12.5607477 C111.109692,11.8542056 110.294642,11.4878505 109.321841,11.4878505 C108.270164,11.4878505 107.428822,11.8803738 106.8504,12.6392523 C106.298269,13.3457944 106.03535,14.235514 106.03535,15.3345794 C106.03535,16.4074766 106.324561,17.3233645 106.8504,18.0037383 C107.455114,18.7626168 108.270164,19.128972 109.321841,19.128972 C110.373518,19.128972 111.241152,18.7364486 111.845866,17.9775701 C112.397997,17.3233645 112.687208,16.4598131 112.687208,15.3345794 Z" id="Shape"></path>
                </g>
                <path d="M122,5.34776658 C122,6.01667289 121.778374,6.54622372 121.384371,7.04790345 C120.990369,7.49384099 120.473241,7.74468085 119.906863,7.74468085 C119.315859,7.74468085 118.847982,7.49384099 118.429354,7.04790345 C118.035352,6.60196591 117.813725,6.01667289 117.813725,5.34776658 C117.813725,4.98544233 117.862976,4.65098918 118.010727,4.34440712 C118.133852,4.00995396 118.330854,3.731243 118.577105,3.53614533 C118.971107,3.17382108 119.41436,2.9787234 119.882238,2.9787234 C120.202364,2.9787234 120.497866,3.0344656 120.768743,3.20169217 C121.13812,3.39678985 121.433622,3.67550081 121.655248,4.06569616 C121.852249,4.4558915 122,4.90182904 122,5.34776658 Z M119.882238,3.31317656 C119.389735,3.31317656 118.995732,3.53614533 118.65098,3.92634067 C118.306228,4.31653602 118.133852,4.79034466 118.133852,5.34776658 C118.133852,5.9330596 118.306228,6.37899714 118.65098,6.79706358 C118.995732,7.18725893 119.389735,7.4102277 119.882238,7.4102277 C120.37474,7.4102277 120.768743,7.18725893 121.113495,6.79706358 C121.458247,6.40686823 121.630623,5.9330596 121.630623,5.34776658 C121.630623,5.04118452 121.581373,4.73460246 121.408997,4.40014931 C121.285871,4.09356725 121.08887,3.84272739 120.867243,3.67550081 C120.596367,3.45253204 120.251615,3.31317656 119.882238,3.31317656 Z M120.103864,5.59860645 L120.867243,6.74132139 L120.300865,6.74132139 L119.586736,5.65434864 L119.586736,6.74132139 L119.118858,6.74132139 L119.118858,4.00995396 L119.611361,4.00995396 C119.956113,4.00995396 120.202364,4.06569616 120.350115,4.23292273 C120.522491,4.37227821 120.620992,4.59524698 120.620992,4.84608685 C120.620992,5.04118452 120.571742,5.18054 120.497866,5.31989548 C120.423991,5.45925096 120.27624,5.57073535 120.153114,5.59860645 L120.103864,5.59860645 L120.103864,5.59860645 Z M119.586736,5.2084111 L119.660611,5.2084111 C119.980738,5.2084111 120.177739,5.09692671 120.177739,4.81821575 C120.177739,4.56737589 120.005363,4.4558915 119.685236,4.4558915 L119.586736,4.4558915 L119.586736,5.2084111 L119.586736,5.2084111 Z" id="Shape"></path>
            </g>
        </g>
    </g>
</svg>