<?xml version="1.0" encoding="utf-8"?>
<!-- Generator: Adobe Illustrator 21.1.0, SVG Export Plug-In . SVG Version: 6.00 Build 0)  -->
<svg version="1.1" id="Layer_1" xmlns="http://www.w3.org/2000/svg" xmlns:xlink="http://www.w3.org/1999/xlink" x="0px" y="0px"
	 viewBox="0 0 484.7 116.5" style="enable-background:new 0 0 484.7 116.5;" xml:space="preserve">
<g>
	<path d="M26.6,49.5v35.9H15.9V49.5h-3.8v-9.9h3.8V22c0-5.8,1-9.9,3-12.3c2.7-3.4,6.7-5,12-5c1.8,0,4.2,0.5,7.1,1.6v10.9L37,16.7
		c-2.3-1.2-4.1-1.7-5.6-1.7c-1.8,0-3.1,0.7-3.8,2.1c-0.7,1.3-1,3.8-1,7.6v15.1h11.5v9.9H26.6V49.5z"/>
	<path d="M41.2,62.2c0-6.6,2.4-12.3,7.1-16.8c4.8-4.7,10.5-6.9,17.3-6.9c6.8,0,12.6,2.3,17.4,6.9c4.7,4.7,7.1,10.4,7.1,17.1
		c0,6.8-2.4,12.6-7.1,17.3c-4.8,4.6-10.6,6.9-17.5,6.9s-12.6-2.4-17.3-7.1C43.6,75.1,41.2,69.2,41.2,62.2z M52.1,62.4
		c0,4.6,1.2,8.1,3.7,10.9c2.5,2.7,5.9,4,9.9,4c4.1,0,7.5-1.3,9.9-4c2.5-2.7,3.7-6.2,3.7-10.6s-1.2-8-3.7-10.6c-2.5-2.7-5.9-4-9.9-4
		c-4,0-7.3,1.3-9.8,4C53.3,54.7,52.1,58.2,52.1,62.4z"/>
	<path d="M95.3,62.2c0-6.6,2.4-12.3,7.1-16.8c4.8-4.7,10.5-6.9,17.3-6.9c6.8,0,12.6,2.3,17.4,6.9c4.7,4.7,7.1,10.4,7.1,17.1
		c0,6.8-2.4,12.6-7.1,17.3c-4.8,4.6-10.6,6.9-17.5,6.9c-6.8,0-12.6-2.4-17.3-7.1C97.5,75.1,95.3,69.2,95.3,62.2z M106,62.4
		c0,4.6,1.2,8.1,3.7,10.9c2.5,2.7,5.9,4,9.9,4c4.1,0,7.5-1.3,9.9-4c2.5-2.7,3.7-6.2,3.7-10.6s-1.2-8-3.7-10.6c-2.5-2.7-5.9-4-9.9-4
		c-4,0-7.3,1.3-9.8,4C107.3,54.7,106,58.2,106,62.4z"/>
	<path d="M185.1,6.1h10.6v79.3h-10.6v-4.8c-4.1,4.1-8.9,6.1-14.1,6.1c-6.3,0-11.5-2.3-15.6-6.8c-4.1-4.7-6.2-10.5-6.2-17.5
		c0-6.8,2.1-12.5,6.2-17.1c4.1-4.6,9.2-6.9,15.4-6.9c5.3,0,10.1,2.2,14.3,6.6V6.1z M160,62.4c0,4.3,1.2,7.9,3.5,10.7
		c2.4,2.8,5.4,4.2,9.1,4.2c3.9,0,7.1-1.3,9.4-4c2.4-2.8,3.6-6.3,3.6-10.6s-1.2-7.8-3.6-10.6c-2.4-2.7-5.5-4.1-9.4-4.1
		c-3.6,0-6.6,1.4-9.1,4.1C161.2,54.8,160,58.3,160,62.4z"/>
	<path d="M233.7,47.4l-8.8,4.7c-1.4-2.8-3-4.2-5.1-4.2c-1,0-1.8,0.3-2.5,1c-0.7,0.7-1.1,1.4-1.1,2.5c0,1.7,2.1,3.5,6.1,5.2
		c5.6,2.4,9.3,4.7,11.3,6.6c2,2.1,2.9,4.8,2.9,8.2c0,4.4-1.6,8.1-4.9,11.1c-3.1,2.8-6.9,4.2-11.5,4.2c-7.7,0-13.1-3.7-16.3-11.2
		l9-4.2c1.3,2.2,2.2,3.6,2.8,4.2c1.3,1.2,2.8,1.7,4.6,1.7c3.6,0,5.3-1.6,5.3-4.9c0-1.8-1.4-3.6-4.1-5.2c-1.1-0.5-2.2-1.1-3.1-1.5
		c-1.1-0.5-2.2-1-3.3-1.5c-3-1.5-5.2-3-6.5-4.6c-1.6-2-2.4-4.3-2.4-7.4c0-4,1.4-7.3,4.1-9.9c2.8-2.6,6.2-3.9,10.1-3.9
		C226.5,38.4,230.8,41.5,233.7,47.4z"/>
	<path d="M254.8,110.3h-10.5V39.6h10.5v5c4.1-4.1,8.9-6.3,14.2-6.3c6.3,0,11.5,2.3,15.5,6.9c4.1,4.6,6.2,10.4,6.2,17.5
		c0,6.8-2.1,12.6-6.2,17.1c-4.1,4.6-9.2,6.8-15.4,6.8c-5.3,0-10.1-2.2-14.3-6.4L254.8,110.3L254.8,110.3z M280,62.8
		c0-4.3-1.2-7.9-3.6-10.7c-2.4-2.8-5.4-4.2-9.1-4.2c-3.9,0-7.1,1.3-9.4,4c-2.4,2.7-3.6,6.2-3.6,10.6c0,4.3,1.2,7.8,3.6,10.6
		c2.4,2.7,5.5,4.1,9.4,4.1c3.7,0,6.7-1.4,9.1-4.1C278.7,70.4,280,67,280,62.8z"/>
	<path d="M298.1,39.6h10.5v4.1c2-2.1,3.7-3.5,5.2-4.2c1.5-0.8,3.4-1.2,5.4-1.2c2.8,0,5.8,0.9,8.8,2.7l-4.9,9.7c-2-1.4-4-2.2-5.9-2.2
		c-5.8,0-8.7,4.3-8.7,13v23.8h-10.5V39.6z"/>
	<path d="M332,20.6c0-1.8,0.7-3.5,2.1-4.8c1.3-1.3,2.9-2.1,4.9-2.1c2,0,3.6,0.7,4.9,2.1c1.3,1.3,2.1,2.9,2.1,4.9s-0.7,3.6-2.1,4.9
		c-1.3,1.3-2.9,2.1-4.9,2.1c-2,0-3.6-0.7-4.9-2.1C332.6,24.2,332,22.6,332,20.6z M344.1,39.6v45.8h-10.5V39.6H344.1z"/>
	<path d="M355.6,39.6h10.6v4.2c3.7-3.7,7.8-5.5,12.5-5.5c5.3,0,9.4,1.6,12.5,5c2.6,2.8,3.8,7.5,3.8,14v28h-10.6V59.8
		c0-4.6-0.7-7.6-1.8-9.3c-1.2-1.7-3.5-2.6-6.6-2.6c-3.5,0-6,1.2-7.5,3.5c-1.4,2.3-2.2,6.3-2.2,11.9v22h-10.6V39.6z"/>
	<path d="M450.7,84.3c0,2.2-0.1,4-0.2,5.8c-0.1,1.6-0.3,3-0.5,4.3c-0.8,3.5-2.2,6.4-4.4,8.9c-4.1,4.8-9.8,7.2-17,7.2
		c-6.1,0-11.2-1.6-15.1-4.9c-4.1-3.4-6.4-8-7.1-14h10.6c0.4,2.3,1.1,4,2.1,5.2c2.2,2.8,5.4,4.2,9.6,4.2c7.7,0,11.6-4.8,11.6-14.2
		v-6.4c-4.2,4.3-9,6.4-14.5,6.4c-6.2,0-11.3-2.3-15.3-6.7c-4-4.6-6-10.3-6-17.1c0-6.6,1.8-12.4,5.6-17c4-5,9.3-7.4,15.8-7.4
		c5.8,0,10.5,2.2,14.3,6.4v-5.2h10.5V84.3z M440.6,62.6c0-4.4-1.2-8-3.6-10.6c-2.4-2.7-5.5-4.1-9.2-4.1c-4,0-7.2,1.5-9.4,4.4
		c-2.1,2.7-3.1,6.1-3.1,10.3c0,4.1,1.1,7.6,3.1,10.2c2.3,2.9,5.4,4.3,9.4,4.3c4,0,7.3-1.5,9.6-4.4C439.5,70.2,440.6,66.9,440.6,62.6
		z"/>
</g>
<g>
	<path d="M475.7,24.4c0,2.4-0.9,4.3-2.5,6.1c-1.6,1.6-3.7,2.5-6,2.5c-2.4,0-4.3-0.9-6-2.5c-1.6-1.6-2.5-3.7-2.5-6.1
		c0-1.3,0.2-2.5,0.8-3.6c0.5-1.2,1.3-2.2,2.3-2.9c1.6-1.3,3.4-2,5.3-2c1.3,0,2.5,0.2,3.6,0.8c1.5,0.7,2.7,1.7,3.6,3.1
		C475.1,21.2,475.7,22.8,475.7,24.4z M467.1,17.1c-2,0-3.6,0.8-5,2.2c-1.4,1.4-2.1,3.1-2.1,5.1c0,2.1,0.7,3.7,2.1,5.2
		c1.4,1.4,3,2.2,5,2.2c2,0,3.6-0.8,5-2.2c1.4-1.4,2.1-3.1,2.1-5.2c0-1.1-0.2-2.2-0.9-3.4c-0.5-1.1-1.3-2-2.2-2.6
		C470,17.6,468.6,17.1,467.1,17.1z M468,25.3l3.1,4.1h-2.3l-2.9-3.9v3.9H464v-9.8h2c1.4,0,2.4,0.2,3,0.8c0.7,0.5,1.1,1.3,1.1,2.2
		c0,0.7-0.2,1.2-0.5,1.7c-0.3,0.5-0.9,0.9-1.4,1H468z M465.9,23.9h0.3c1.3,0,2.1-0.4,2.1-1.4c0-0.9-0.7-1.3-2-1.3h-0.4V23.9z"/>
</g>
</svg>
